<svg><defs><g id="check"><path d="M9 16.17L4.83 12l-1.42 1.41L9 19 21 7l-1.41-1.41z"/></g><g id="northarrow" transform="translate(-285.23973,-142.23388)"><path id="path3770-7" d="m 305.9093,156.64795 c 0,4.78008 -3.8742,8.65314 -8.65317,8.65314 -4.78014,0 -8.65316,-3.87425 -8.65316,-8.65314 0,-4.78016 3.87422,-8.65322 8.65316,-8.65322 4.78014,0 8.65317,3.87425 8.65317,8.65322 z" style="opacity:1;fill:#ffffff;fill-opacity:1;stroke:#ffffff;stroke-width:0.89468277;stroke-miterlimit:4;stroke-dasharray:none;stroke-opacity:1"/><path id="path3770" d="m 304.98197,156.64794 c 0,4.26783 -3.45902,7.72582 -7.72584,7.72582 -4.26786,0 -7.72583,-3.45905 -7.72583,-7.72582 0,-4.26787 3.45903,-7.72588 7.72583,-7.72588 4.26788,0 7.72584,3.45907 7.72584,7.72588 z" style="opacity:1;fill:none;fill-opacity:1;stroke:#6d6d6d;stroke-width:0.79922527;stroke-opacity:1"/><path id="path3774" d="m 297.25613,156.64794 0,-8.5251" style="fill:none;stroke:#000000;stroke-width:0.06660211"/><path style="fill:#ffffff;stroke:#ffffff;stroke-width:0.91174924;stroke-miterlimit:4;stroke-dasharray:none;stroke-opacity:1" d="m 297.25844,143.48074 8.79232,22.43079 -8.81116,-8.81115 -8.81114,8.81115 z" id="path3778"/><path style="fill: #d6d6d6;stroke: #000;stroke-width:0.26640841;stroke-linecap:square;stroke-opacity:1" d="m 297.25613,144.80527 7.72584,19.5677 -7.72584,-7.72587 -7.72583,7.72587 z" id="path3780"/><path id="path6038" d="m 297.25632,144.66607 0,0 0,0 -7.72602,19.56818 7.72602,-7.72606 0,0" style="fill:#6d6d6d;fill-opacity:1;stroke:none;stroke-width:0.29611364;stroke-linecap:square;stroke-opacity:1"/></g></defs></svg>